<svg xmlns="http://www.w3.org/2000/svg" width="345.121" height="79.692" viewBox="0 0 345.121 79.692"><defs><style>.a{fill:#a00;}.b{fill:#fff;}</style></defs><g transform="translate(-229.222 -2679.063)"><g transform="translate(229.222 2679.063)"><path class="a" d="M295.772,2711.616l9.264-8.1-1.1-1.774a59.417,59.417,0,0,0-8.824-10.519c-7.518-7.156-15.893-11.319-24.218-12.04-11.361-.983-22.505,4.174-33.13,15.324a27.041,27.041,0,0,0-2.3,2.848c-.451.618-.877,1.2-1.3,1.681-5.494,6.148-6.167,13.1-1.947,20.1a30.474,30.474,0,0,0,6.095,7.073l-1.773,1.551.02.017-7.338,6.552,1.09,1.754a59.331,59.331,0,0,0,8.823,10.519c7.518,7.156,15.893,11.32,24.218,12.04q1.365.118,2.726.118c10.415,0,20.631-5.185,30.4-15.442a32.312,32.312,0,0,0,2.635-3.245c.366-.5.712-.964,1.055-1.39,4.744-5.888,5.2-12.705,1.326-19.714A32.2,32.2,0,0,0,295.772,2711.616Zm-25.506-27.059c13.563,1.162,23.723,13.471,27.062,18.055l-3.911,3.421-11.351-9.927L269.842,2706.8a64.933,64.933,0,0,0-13.5-8.839,27,27,0,0,0-11.031-2.772C253.625,2687.423,262,2683.85,270.265,2684.558Zm-4.231,68.791q-1.027,0-2.053-.088c-13.583-1.164-23.751-13.505-27.075-18.074l4.023-3.592,11.242,9.833,12.07-10.557c9.718,8.267,17.331,12.269,23.762,12.614C280.684,2750.041,273.319,2753.349,266.034,2753.349Zm29.27-18.015a8.959,8.959,0,0,1-6.544,2.769c-4.877-.077-11.527-3.715-20.152-11.053l.041-.035-4.7-4.109q-3.878-3.59-8.224-8.042l-2.193-2.247-10.895,9.728a24.8,24.8,0,0,1-5.033-5.863c-2.937-4.962-2.552-9.492,1.179-13.837,3.907-2.758,8.577-2.727,14.671.091,6.814,3.151,15.2,9.863,24.923,19.948l2.168,2.249,10.848-9.488a26.532,26.532,0,0,1,4.613,6C298.763,2726.512,298.525,2731.183,295.3,2735.334Z" transform="translate(-229.222 -2679.063)"/></g><g transform="translate(325.414 2698.475)"><path class="b" d="M357.929,2738.765v-7.258a1.187,1.187,0,0,1,1.686-.987c5.9,2.462,10.36,3.694,13.419,3.694,1.373,0,2.089-.326,2.089-.981,0-2.124-6.507-2.833-11.642-4.414-3.582-1.089-6.387-3.542-6.387-7.029,0-5.449,5.97-9.1,15.7-9.1a34.1,34.1,0,0,1,11.925,2.064,1.083,1.083,0,0,1,.732,1v6.618a1.189,1.189,0,0,1-1.711.976c-5.319-2.362-9.455-3.523-12.319-3.523-1.492,0-2.269.381-2.269,1.2-.059,2.562,18.209,1.853,18.09,11.716,0,5.667-6.03,9.153-15.821,9.153a45.923,45.923,0,0,1-12.671-2.1A1.1,1.1,0,0,1,357.929,2738.765Z" transform="translate(-357.093 -2706.806)"/><path class="b" d="M406.031,2737.7a12.863,12.863,0,0,1-5.135-10.353,13.144,13.144,0,0,1,5.135-10.462,18.928,18.928,0,0,1,12.358-4.2,19.2,19.2,0,0,1,12.537,4.2,13,13,0,0,1,5.134,10.462,12.864,12.864,0,0,1-5.134,10.353,19.193,19.193,0,0,1-12.537,4.2A18.927,18.927,0,0,1,406.031,2737.7Zm12.477-5.667a4.973,4.973,0,0,0,3.523-1.253,4.582,4.582,0,0,0,1.253-3.433,4.712,4.712,0,0,0-1.253-3.487,4.968,4.968,0,0,0-3.523-1.253,4.7,4.7,0,0,0-3.463,1.2,4.566,4.566,0,0,0-1.313,3.542,4.4,4.4,0,0,0,1.313,3.433A4.724,4.724,0,0,0,418.508,2732.035Z" transform="translate(-367.945 -2706.806)"/><path class="b" d="M482.283,2716.777a14.358,14.358,0,0,1,4.119,10.572,14.106,14.106,0,0,1-4.119,10.462,14.561,14.561,0,0,1-10.567,4.086,10.865,10.865,0,0,1-7.4-2.779v11.5a1.143,1.143,0,0,1-1.191,1.086h-10.1a1.142,1.142,0,0,1-1.19-1.086v-36.3a1.142,1.142,0,0,1,1.19-1.087h10.1a1.143,1.143,0,0,1,1.191,1.087v1.2a10.6,10.6,0,0,1,7.462-2.834A14.421,14.421,0,0,1,482.283,2716.777Zm-10.089,13.9a4.391,4.391,0,0,0,1.313-3.323,4.5,4.5,0,0,0-4.776-4.741,4.578,4.578,0,0,0-4.836,4.741,4.435,4.435,0,0,0,1.374,3.323A5.237,5.237,0,0,0,472.193,2730.672Z" transform="translate(-380.564 -2706.806)"/><path class="b" d="M507.121,2737.7a12.865,12.865,0,0,1-5.134-10.353,13.146,13.146,0,0,1,5.134-10.462,18.932,18.932,0,0,1,12.359-4.2,19.191,19.191,0,0,1,12.536,4.2,12.993,12.993,0,0,1,5.135,10.462,12.863,12.863,0,0,1-5.135,10.353,19.189,19.189,0,0,1-12.536,4.2A18.93,18.93,0,0,1,507.121,2737.7Zm12.478-5.667a4.973,4.973,0,0,0,3.523-1.253,4.582,4.582,0,0,0,1.253-3.433,4.712,4.712,0,0,0-1.253-3.487,4.968,4.968,0,0,0-3.523-1.253,4.7,4.7,0,0,0-3.463,1.2,4.566,4.566,0,0,0-1.313,3.542,4.4,4.4,0,0,0,1.313,3.433A4.724,4.724,0,0,0,519.6,2732.035Z" transform="translate(-392.989 -2706.806)"/><path class="b" d="M579.3,2714.371v7.793a.871.871,0,0,1-1.055.8c-2.118-.367-6.953-.8-10.109,2.313-1.928,1.9-2.269,3.814-2.269,7.465v7.578a1.143,1.143,0,0,1-1.191,1.086H554.523a1.142,1.142,0,0,1-1.19-1.086v-25.943a1.142,1.142,0,0,1,1.19-1.087h10.156a1.143,1.143,0,0,1,1.191,1.087v3.436c1.731-3.269,4.776-4.9,9.074-4.9a10.267,10.267,0,0,1,3.84.723A.805.805,0,0,1,579.3,2714.371Z" transform="translate(-405.709 -2706.86)"/><path class="b" d="M599.8,2737.125a9.012,9.012,0,0,1-3.94-7.792v-8.282h-3.232a.856.856,0,0,1-.893-.815v-8.124a.856.856,0,0,1,.893-.815h3.232v-5.615a.856.856,0,0,1,.893-.814h10.572a.856.856,0,0,1,.893.814v5.615h7.83a.856.856,0,0,1,.893.815v8.124a.856.856,0,0,1-.893.815h-7.83v5.5c0,1.951.815,3.328,3.164,3.328a12.3,12.3,0,0,0,5.314-1.261.894.894,0,0,1,1.313.718v8.348a1.084,1.084,0,0,1-.716,1,22.214,22.214,0,0,1-8,1.278A15.459,15.459,0,0,1,599.8,2737.125Z" transform="translate(-415.223 -2704.868)"/><path class="b" d="M658.3,2717.213c3.044,3.051,4.06,6.705,3.044,11.882H641.551c1.134,2.452,4.088,4.138,8.386,4.138a24.92,24.92,0,0,0,9.091-1.806,1.183,1.183,0,0,1,1.656,1v6.183a2.249,2.249,0,0,1-1.811,2.127,42.873,42.873,0,0,1-9.95,1.161c-5.671,0-10.329-1.362-14.03-4.032a12.577,12.577,0,0,1-5.552-10.68,13.176,13.176,0,0,1,4.836-10.353,17,17,0,0,1,11.641-4.141C651.132,2712.691,655.251,2714.217,658.3,2717.213Zm-17.075,7.03H650c-.06-2.562-1.374-3.814-3.94-3.814C643.37,2720.429,641.758,2721.681,641.22,2724.243Z" transform="translate(-424.539 -2706.806)"/><g transform="translate(236.339 0.789)"><path class="b" d="M671.317,2710.951v-1.016a.26.26,0,0,1,.382-.208,5.473,5.473,0,0,0,2.376.646c.467,0,.776-.121.776-.338,0-.772-3.586-.33-3.586-2.3a1.5,1.5,0,0,1,.8-1.335,3.914,3.914,0,0,1,2.035-.482,5.6,5.6,0,0,1,2.066.362.238.238,0,0,1,.154.219v.987a.26.26,0,0,1-.367.216,5.373,5.373,0,0,0-2.048-.457q-.792,0-.793.338c0,.755,3.578.3,3.578,2.276a1.537,1.537,0,0,1-.776,1.343,3.667,3.667,0,0,1-2.027.507,5.606,5.606,0,0,1-2.433-.543A.238.238,0,0,1,671.317,2710.951Z" transform="translate(-671.264 -2705.917)"/><path class="b" d="M684,2711.566l-.377-.878h-2.679l-.376.878a.151.151,0,0,1-.14.087H678.98a.139.139,0,0,1-.139-.187L681,2706.5a.834.834,0,0,1,.772-.478h1.006a.833.833,0,0,1,.771.477l2.169,4.965a.139.139,0,0,1-.139.187h-1.439A.151.151,0,0,1,684,2711.566Zm-2.492-2.2h1.55l-.722-1.916a.059.059,0,0,0-.106,0Z" transform="translate(-673.138 -2705.944)"/></g></g></g></svg>