<svg xmlns="http://www.w3.org/2000/svg" version="1.1" xmlns:xlink="http://www.w3.org/1999/xlink" xmlns:svgjs="http://svgjs.dev/svgjs" width="1000" height="1000" viewBox="0 0 1000 1000"><rect width="1000" height="1000" fill="#ed1703"></rect><g transform="matrix(0.7,0,0,0.7,150.0000000000001,106.25)"><svg viewBox="0 0 320 360" data-background-color="#ed1703" preserveAspectRatio="xMidYMid meet" height="1125" width="1000" xmlns="http://www.w3.org/2000/svg" xmlns:xlink="http://www.w3.org/1999/xlink"><g id="tight-bounds" transform="matrix(1,0,0,1,0,0)"><svg viewBox="0 0 320 360" height="360" width="320"><g><svg></svg></g><g><svg viewBox="0 0 320 360" height="360" width="320"><g><path xmlns="http://www.w3.org/2000/svg" d="M20.961 227.22l3.726 4.658-1.863-6.056c-0.466-2.795-3.726 0.466-1.863 1.398M25.153 224.425c1.397 2.329 2.795 4.658 2.795 6.987 0 3.261 2.795 4.658 5.123 5.589-3.261-3.726-5.124-13.974-7.918-12.576M204.017 26.929c7.918 0 15.371-0.932 23.756 0.931 20.495 5.124 37.729 15.371 49.374 29.811l32.606 52.169c1.397 13.042 4.192 27.482 3.726 43.319 3.261 0 2.795-4.658 6.521-5.59-3.726 9.316-5.59 20.961-6.521 34.469-2.329-7.453 0-18.632 0.466-24.687-3.261 5.124-5.124 1.397-5.124-0.932 0.466-3.726-1.397-3.261-2.795-4.658-5.124-4.658-8.384-9.782-12.11-17.7 2.329-6.055 2.795-14.905-4.658-19.563-2.329-1.397-5.124-3.726-6.521-7.453-1.863-5.124-5.124-11.179-4.193-19.097 0.466-2.329-6.987 5.124-11.179 1.863-18.166-12.576-36.332-27.016-58.224-39.127-11.645 0-20.029-4.192-24.221-9.316-3.726-4.658-0.932-10.713 4.658-11.179 3.261 0 6.987-0.932 9.782 0.932 0.466-1.863 2.329-4.192 4.657-4.192M157.904 16.215l0.932 0.466c4.658 0.932 6.987 7.453 12.11 5.124 0 3.261 0.466 6.521-0.466 8.85-1.397 3.726-5.59 3.726-8.85 3.726-31.208-1.863-49.374 11.179-68.471 22.358-5.124 3.261-10.713 5.59-14.906 9.782-20.029 18.632-41.921 35.866-47.045 70.335l-4.192 38.195c-0.466 4.192-5.124 8.384-4.192 13.508l3.26 22.824c-3.261-3.261-5.124 0.932-4.192 2.795 0.466 1.397 2.329 6.055 5.124 1.863 3.726 6.987 7.453 20.495 12.576 26.55 15.837 18.632 36.332 35.4 53.101 52.169 4.192-0.932 7.453-0.932 8.384-3.727 1.397 2.795-1.397 5.59-3.726 6.056 7.453 4.658 15.837 8.85 27.016 9.781 14.44 0.932 27.948 3.261 40.524 6.522 6.521-1.863 13.042-2.795 20.029-3.261 2.329 0 3.726-3.726 6.521-4.658l0.466-4.658c2.795 4.192 2.329-1.397 0.466-4.192 3.261 2.795 4.192 5.124 5.589 6.987 0-1.397 3.726-6.521 3.727-0.466l0.931-6.055c1.397-0.932 1.863 5.124 3.261 0.931 1.397-4.192 4.192-0.932 6.987-2.329-0.932 1.863-0.466 5.59 2.794 3.261l3.727-3.261c2.329 5.59 6.055 3.261 7.918 2.329 20.495-13.042 40.99-28.413 60.553-43.784l-0.466 6.055 2.329-7.453c2.329 2.329 4.192 0.466 5.124-0.931 2.795-4.658 6.521-9.316 12.577-13.508-7.453 20.029-16.303 35.866-27.482 48.908l-4.658 5.59c0 3.261-0.932 7.453-4.658 7.918-1.863 0.466-5.59-0.932-8.384 1.863-1.397 1.863 3.261 5.59-0.466 2.795-3.261-2.329-6.521 0-10.248 0.932-2.795 0.932 1.863 3.726 2.795 5.589 0.932 1.863 1.863 3.726 1.398 6.056l-5.124-5.59c-6.055 3.261-9.782 9.316-14.906 13.974-2.329 1.863-1.397 5.124-1.397 7.918-3.261 0-6.987-0.932-8.85 0.932-1.397 1.863-0.932 4.658-0.932 7.453-4.658-0.466-5.124-7.453-9.315-6.056-4.192 0.932-8.85 1.397-12.577 3.727 2.795 5.59-4.658 2.329-3.726 3.26-6.987-4.192-13.042-7.453-20.495-4.658-15.837-5.124-35.4-2.795-49.84-0.931 0-2.329 0.466-4.658-0.466-5.124-0.932 2.329-3.726 1.397-3.26 1.397-8.85-6.055-17.7-9.782-27.016-14.905-8.384 0.932-16.303-3.261-18.632-5.59-6.521-6.055-13.974-2.795-20.029-4.192-13.042-3.261-17.7-16.769-19.098-26.084-0.932-4.658-4.658-6.521-6.055-6.056-6.055-19.563-15.371-37.263-22.824-55.429-1.863-4.658-1.397-9.316-1.397-14.44 2.329 0.932 4.658 0.466 4.192-2.794-2.329-15.371-7.918-27.016-13.974-38.195 3.261-15.837 3.726-34.469 11.179-48.443 6.521-12.576 18.632-19.098 27.016-29.811 2.795-3.726 2.795-8.85 5.59-12.11 9.316-9.316 18.632-19.098 28.879-27.482 4.658-3.726 10.247 0 17.234-1.397 2.329-8.384 11.645-15.837 20.495-13.508 3.726 0.932 11.179-8.85 13.508-9.782 3.726-1.397 1.863 3.726 1.863 6.987 8.85-6.987 20.961-10.713 32.14-14.906" fill="#ffffff" fill-rule="nonzero" stroke="none" stroke-width="1" stroke-linecap="butt" stroke-linejoin="miter" stroke-miterlimit="10" stroke-dasharray="" stroke-dashoffset="0" font-family="none" font-weight="none" font-size="none" text-anchor="none" style="mix-blend-mode: normal" data-fill-palette-color="tertiary"></path></g><g transform="matrix(1,0,0,1,64,163.33038229376257)"><svg viewBox="0 0 192 33.33923541247485" height="33.33923541247485" width="192"><g><svg viewBox="0 0 192 33.33923541247485" height="33.33923541247485" width="192"><g><svg viewBox="0 0 192 33.33923541247485" height="33.33923541247485" width="192"><g><svg viewBox="0 0 192 33.33923541247485" height="33.33923541247485" width="192"><g id="textblocktransform"><svg viewBox="0 0 192 33.33923541247485" height="33.33923541247485" width="192" id="textblock"><g><svg viewBox="0 0 192 33.33923541247485" height="33.33923541247485" width="192"><g transform="matrix(1,0,0,1,0,0)"><svg width="192" viewBox="1.350000023841858 -42.29999923706055 248.47999572753906 43.14999771118164" height="33.33923541247485" data-palette-color="#ffffff"><path d="M30.3 0L26.2-11.05 10.4-11.05 6.35 0 1.35 0 15.6-38.35 21-38.35 35.3 0 30.3 0ZM12.05-15.4L24.55-15.4 18.3-32.3 12.05-15.4ZM48.15 0.65Q44.4 0.65 42.75-0.85 41.1-2.35 41.1-5.9L41.1-5.9 41.1-42.3 45.8-42.3 45.8-7.15Q45.8-5.15 46.42-4.42 47.05-3.7 48.8-3.7L48.8-3.7Q50.2-3.7 51.3-4L51.3-4 51.3 0.3Q49.3 0.65 48.15 0.65L48.15 0.65ZM60.25-13.45Q60.35-8.85 62.55-6.1 64.75-3.35 69.55-3.35L69.55-3.35Q73.2-3.35 77.55-5.4L77.55-5.4 79-1.5Q74.45 0.85 69.15 0.85L69.15 0.85Q64.75 0.85 61.65-1 58.55-2.85 56.95-6.15 55.35-9.45 55.35-13.85L55.35-13.85Q55.35-18.5 57.02-21.78 58.7-25.05 61.55-26.75 64.4-28.45 67.95-28.45L67.95-28.45Q73.4-28.45 76.5-25.05 79.6-21.65 79.6-15.3L79.6-15.3 79.6-13.45 60.25-13.45ZM67.95-24.25Q61.75-24.25 60.55-17.4L60.55-17.4 74.65-17.4Q74.4-20.9 72.75-22.58 71.1-24.25 67.95-24.25L67.95-24.25ZM109.14 0L103.49 0 96.19-10.75 89.19 0 83.54 0 93.29-14.45 84.04-27.65 89.69-27.65 96.39-17.75 103.14-27.65 108.69-27.65 99.19-14.05 109.14 0ZM123.89-27.65Q128.29-27.65 130.59-26.18 132.89-24.7 133.64-22.23 134.39-19.75 134.39-16L134.39-16 134.39 0 129.69 0 129.69-2.75Q127.79-0.95 125.89-0.15 123.99 0.65 121.79 0.65L121.79 0.65Q119.19 0.65 117.09-0.48 114.99-1.6 113.77-3.73 112.54-5.85 112.54-8.75L112.54-8.75Q112.54-13.25 115.34-15.73 118.14-18.2 122.89-18.2L122.89-18.2Q126.64-18.2 129.64-16.55L129.64-16.55Q129.59-19 129.14-20.45 128.69-21.9 127.29-22.68 125.89-23.45 123.14-23.45L123.14-23.45 119.44-23.45 119.44-27.65 123.89-27.65ZM122.44-3.4Q124.14-3.4 126.02-4.2 127.89-5 129.69-6.6L129.69-6.6 129.69-12.9Q126.89-14.3 123.59-14.3L123.59-14.3Q120.94-14.3 119.14-13.03 117.34-11.75 117.34-8.75L117.34-8.75Q117.34-5.95 118.87-4.67 120.39-3.4 122.44-3.4L122.44-3.4ZM155.29-28.25Q160.39-28.25 162.86-25.55 165.34-22.85 165.34-16.65L165.34-16.65 165.34 0 160.64 0 160.64-16.65Q160.64-20.55 159.31-22.2 157.99-23.85 154.64-23.85L154.64-23.85Q150.74-23.85 146.84-20.45L146.84-20.45 146.84 0 142.14 0 142.14-27.65 146.84-27.65 146.84-24.7Q150.94-28.25 155.29-28.25L155.29-28.25ZM192.69-42.3L197.39-42.3 197.39 0 192.69 0 192.69-2.5Q188.74 0.85 184.69 0.85L184.69 0.85Q179.09 0.85 175.74-2.9 172.39-6.65 172.39-13.8L172.39-13.8Q172.39-20.95 175.74-24.7 179.09-28.45 184.69-28.45L184.69-28.45Q188.69-28.45 192.69-25.05L192.69-25.05 192.69-42.3ZM185.29-3.5Q188.89-3.5 192.69-6.6L192.69-6.6 192.69-20.95Q188.99-24.05 185.29-24.05L185.29-24.05Q181.34-24.05 179.31-21.45 177.29-18.85 177.29-13.8L177.29-13.8Q177.29-8.75 179.31-6.13 181.34-3.5 185.29-3.5L185.29-3.5ZM209.58-13.45Q209.68-8.85 211.88-6.1 214.08-3.35 218.88-3.35L218.88-3.35Q222.53-3.35 226.88-5.4L226.88-5.4 228.33-1.5Q223.78 0.85 218.48 0.85L218.48 0.85Q214.08 0.85 210.98-1 207.88-2.85 206.28-6.15 204.68-9.45 204.68-13.85L204.68-13.85Q204.68-18.5 206.36-21.78 208.03-25.05 210.88-26.75 213.73-28.45 217.28-28.45L217.28-28.45Q222.73-28.45 225.83-25.05 228.93-21.65 228.93-15.3L228.93-15.3 228.93-13.45 209.58-13.45ZM217.28-24.25Q211.08-24.25 209.88-17.4L209.88-17.4 223.98-17.4Q223.73-20.9 222.08-22.58 220.43-24.25 217.28-24.25L217.28-24.25ZM248.68-28.25L249.83-28.25 249.83-23.85 248.68-23.85Q244.38-23.85 240.33-20.4L240.33-20.4 240.33 0 235.63 0 235.63-27.65 240.33-27.65 240.33-24.55Q244.43-28.25 248.68-28.25L248.68-28.25Z" opacity="1" transform="matrix(1,0,0,1,0,0)" fill="#ffffff" class="undefined-text-0" data-fill-palette-color="primary" id="text-0"></path></svg></g></svg></g></svg></g></svg></g><g></g></svg></g></svg></g></svg></g></svg></g><defs></defs></svg><rect width="320" height="360" fill="none" stroke="none" visibility="hidden"></rect></g></svg></g></svg>